<?xml version="1.0" encoding="utf-8"?>
<!-- Generator: Adobe Illustrator 21.0.2, SVG Export Plug-In . SVG Version: 6.00 Build 0)  -->
<svg version="1.1" id="Capa_1" xmlns="http://www.w3.org/2000/svg" xmlns:xlink="http://www.w3.org/1999/xlink" x="0px" y="0px"
	 viewBox="0 0 1974 298" style="enable-background:new 0 0 1974 298;" xml:space="preserve">
<style type="text/css">
	.st0{fill:#FFFFFF;}
</style>
<g>
	<path class="st0" d="M65.3,252.7c-10.9,0-19.3-8.4-19.3-19.3V56.3c0-11.2,8.4-19.3,19.3-19.3h112c28.7,0,28.1,40.5,0,40.5H87.4
		v46.8H166c27.8,0,27.8,40.9,0,40.9H87.4v46.8h95.1c28.4,0,30.6,40.9,0,40.9H65.3z"/>
	<path class="st0" d="M308.6,238.7L226.2,66.2c-12.2-24.6,24.6-44.9,38.4-19l27.8,62.7l35.9,82.3l35.2-82.3l27.8-62.7
		c12.5-23.7,48.7-8.7,38.1,17.2l-79.5,174.4C342.5,258.4,320.4,263,308.6,238.7"/>
	<path class="st0" d="M752.9,49.5c0-10.4,8.8-19.2,19.8-19.2c10.1,0,18.6,8.8,18.6,19.2v157.6h85.5c30.8,0,31.4,41.2,0,41.2H772.8
		c-11,0-19.8-7.9-19.8-19.2V49.5z"/>
	<path class="st0" d="M1068,51.4c0-28,41.2-30.2,41.2,0v113.8c0,117.6-189.6,117.6-189.6,0V51.4c0-28.3,41.2-29.6,41.2,0v113.8
		c0,62,107.2,65.7,107.2,0V51.4z"/>
	<path class="st0" d="M1212.1,69.9h-55c-27.4,0-27.4-40.2,0-40.2h148.7c28,0,28,40.2,0,40.2h-52.2v158.8c0,27.4-41.5,28-41.5,0V69.9
		z"/>
	<path class="st0" d="M1358.9,49.5c0-25.8,41.5-26.7,41.5,0v179.6c0,26.1-41.5,26.7-41.5,0V49.5z"/>
	<path class="st0" d="M1740.9,54.2c0-11.2,2.5-22.2,18.7-22.2c11.2,0,13.7,2.8,22.2,10.9l103.4,129.3V51.1
		c0-10.3,9.1-21.5,19.7-21.5c11.2,0,22.2,11.2,22.2,21.5v175.8c0,13.7-8.4,19-16.5,21.6c-10.9,0-16.2-2.5-25.3-10.9l-103.4-131.2
		v120.5c0,13.7-8.4,21.6-19.7,21.6c-11.2,0-21.2-7.8-21.2-21.6V54.2z"/>
	<path class="st0" d="M1716.6,149c0,0,0-0.1,0-0.1c0,0,0-0.1,0-0.1V149z"/>
	<path class="st0" d="M1716.6,149v-0.3c-0.1-74.5-60.7-135-135.2-135c-74.5,0-135.2,60.6-135.2,135.2S1506.9,284,1581.4,284
		C1655.9,284,1716.5,223.4,1716.6,149z M1581.4,241c-50.8,0-92.1-41.3-92.1-92.1c0-50.8,41.3-92.1,92.1-92.1
		c50.8,0,92.1,41.3,92.1,92.1C1673.6,199.6,1632.2,241,1581.4,241z"/>
	<path class="st0" d="M719,149v-0.3c-0.1-74.5-60.7-135-135.2-135c-74.5,0-135.2,60.6-135.2,135.2S509.3,284,583.8,284
		C658.3,284,718.9,223.4,719,149z M583.8,241c-50.8,0-92.1-41.3-92.1-92.1c0-50.8,41.3-92.1,92.1-92.1c50.8,0,92.1,41.3,92.1,92.1
		C675.9,199.6,634.6,241,583.8,241z"/>
</g>
</svg>
