<?xml version="1.0" encoding="utf-8"?>
<!-- Generator: Adobe Illustrator 21.0.2, SVG Export Plug-In . SVG Version: 6.00 Build 0)  -->
<svg version="1.1" id="Capa_1" xmlns="http://www.w3.org/2000/svg" xmlns:xlink="http://www.w3.org/1999/xlink" x="0px" y="0px"
	 viewBox="0 0 740 258.6" style="enable-background:new 0 0 740 258.6;" xml:space="preserve">
<style type="text/css">
	.st0{fill:#FFFFFF;}
</style>
<g>
	<path class="st0" d="M17.3,135.5c0-0.7,0.3-1.4,0.8-2.1c0.5-0.7,1.2-1.1,2-1.1h15.6c1,0,1.8,0.2,2.6,0.7c0.8,0.5,1.3,0.9,1.6,1.4
		l0.3,0.8l36.6,76.5l34.2-74.3l1-2c0.1-0.3,0.2-0.7,0.5-1.1c0.3-0.4,0.7-0.8,1.4-1.2c0.6-0.4,1.4-0.6,2.3-0.6h4.6
		c2.2,0,3.3,1,3.3,3.1l-0.3,1.2v0.2c-0.2,0.5-8.2,17.4-23.9,50.7S76.1,238,75.7,238.7c-1,1.8-2.5,2.6-4.5,2.6
		c-2.1,0-3.7-0.9-4.7-2.6v-0.2c-1.5-2.9-5.8-11.9-13.1-27c-7.2-15-14-29.1-20.4-42.3c-6.4-13.2-9.8-20.2-10.3-21l-0.3-0.2l-4.5-9.7
		C17.5,137.5,17.3,136.5,17.3,135.5z"/>
	<path class="st0" d="M290.6,238.2c0,0.7-0.3,1.4-0.8,2.1c-0.5,0.7-1.2,1.1-2,1.1h-15.6c-1,0-1.8-0.2-2.6-0.7
		c-0.8-0.5-1.3-0.9-1.6-1.4l-0.3-0.8L231.1,162l-34.2,74.3l-1,2c-0.1,0.3-0.2,0.7-0.5,1.1c-0.3,0.4-0.7,0.8-1.4,1.2
		c-0.6,0.4-1.4,0.6-2.3,0.6h-4.6c-2.2,0-3.3-1-3.3-3.1l0.3-1.2v-0.2c0.2-0.5,8.2-17.4,23.9-50.7s23.8-50.4,24.1-51.2
		c1-1.8,2.5-2.6,4.5-2.6c2.1,0,3.7,0.9,4.7,2.6v0.2c1.5,2.9,5.8,11.9,13.1,27c7.2,15,14,29.1,20.4,42.3c6.4,13.2,9.8,20.2,10.3,21
		l0.3,0.2l4.5,9.7C290.3,236.3,290.6,237.2,290.6,238.2z"/>
	<path class="st0" d="M140.5,238.2v-99.1c0-0.3,0-0.6,0.1-1.1c0.1-0.5,0.4-1,1.1-1.8c0.7-0.7,1.7-1.1,2.9-1.1h13.1
		c0.3,0,0.6,0,1.1,0.1c0.4,0.1,1,0.5,1.8,1.1c0.7,0.6,1.1,1.6,1.1,2.8v99.1v0.2c0,0.2-0.1,0.6-0.3,1c-0.2,0.5-0.6,0.9-1.3,1.5
		c-0.7,0.5-1.5,0.8-2.4,0.8h-13.1c-1.1,0-2-0.3-2.7-0.8c-0.7-0.6-1.1-1.1-1.3-1.7L140.5,238.2z"/>
	<path class="st0" d="M307.1,187.4c0-16.5,5.9-30.1,17.7-40.9c11.5-10,25.7-15.3,42.4-16h0.2c0.8,0,1.8,0.3,2.7,0.8s1.4,1.5,1.4,2.8
		v3.1c0,2.3-1.6,3.6-4.7,3.8c-4.7,0.6-9.3,2.1-13.7,4.4c-4.5,2.3-8.4,5.4-11.7,9.3c-7.6,8.8-11.4,19.5-11.4,32.3
		c0,12.1,3.8,22.4,11.4,30.9c8.1,9.2,18.6,13.7,31.6,13.7c4.9,0,9.2-0.5,13.1-1.5c4.1-1.3,7.6-3.2,10.6-5.6v-43.6c0-0.3,0-0.6,0.1-1
		c0.1-0.4,0.4-0.9,1.1-1.6c0.6-0.7,1.5-1,2.7-1h13.9c1.1,0,2,0.3,2.5,1c0.6,0.7,0.8,1.4,0.8,2l0.1,0.9v46.5l-1.1,0.7
		c-6.7,4.1-13.9,7.4-21.5,9.7c-7.7,2.3-15.8,3.5-24.4,3.5c-18.4,0-33.6-4.9-45.6-14.7C313.1,216.8,307.1,203.6,307.1,187.4z"/>
	<path class="st0" d="M434.3,187.4c0-16.5,5.9-30.1,17.7-40.9c11.5-10,25.7-15.3,42.4-16h0.2c0.8,0,1.8,0.3,2.7,0.8
		c1,0.6,1.4,1.5,1.4,2.8v3.1c0,2.3-1.6,3.6-4.7,3.8c-4.7,0.6-9.3,2.1-13.7,4.4c-4.5,2.3-8.4,5.4-11.7,9.3
		c-7.6,8.8-11.4,19.5-11.4,32.3c0,12.1,3.8,22.4,11.4,30.9c8.1,9.2,18.6,13.7,31.6,13.7c4.9,0,9.2-0.5,13.1-1.5
		c4.1-1.3,7.6-3.2,10.6-5.6v-43.6c0-0.3,0-0.6,0.1-1c0.1-0.4,0.4-0.9,1.1-1.6c0.6-0.7,1.5-1,2.7-1h13.9c1.1,0,2,0.3,2.5,1
		c0.6,0.7,0.8,1.4,0.8,2l0.1,0.9v46.5l-1.1,0.7c-6.7,4.1-13.9,7.4-21.5,9.7c-7.7,2.3-15.8,3.5-24.4,3.5c-18.4,0-33.6-4.9-45.6-14.7
		C440.3,216.8,434.3,203.6,434.3,187.4z"/>
	<path class="st0" d="M561.5,238.2v-99.1c0-0.3,0-0.6,0.1-1.1c0.1-0.5,0.4-1,1.1-1.8c0.7-0.7,1.7-1.1,2.9-1.1h13.1
		c0.3,0,0.6,0,1.1,0.1c0.4,0.1,1,0.5,1.8,1.1c0.7,0.6,1.1,1.6,1.1,2.8v99.1v0.2c0,0.2-0.1,0.6-0.3,1c-0.2,0.5-0.6,0.9-1.3,1.5
		c-0.7,0.5-1.5,0.8-2.4,0.8h-13.1c-1.1,0-2-0.3-2.7-0.8c-0.7-0.6-1.1-1.1-1.3-1.7L561.5,238.2z"/>
	<path class="st0" d="M599.3,186c0-16.2,5.4-29.5,16.1-40.1c11-10.5,25.5-15.7,43.7-15.7c18,0,32.4,5.2,43.4,15.7
		c10.7,10.2,16.1,23.6,16.1,40.1c0,16-5.5,29.4-16.4,39.9c-10.9,10.4-25.3,15.6-43.1,15.6c-17.9,0-32.4-5.3-43.4-15.8
		C604.8,215.4,599.3,202.1,599.3,186z M622.2,186c0,12.2,2.9,22.4,8.7,30.5c6.8,9.9,16.2,14.9,28.1,14.9c11.1,0,20.1-4.9,27.2-14.8
		c6.3-8.8,9.4-18.8,9.4-29.8c0-12.8-3-23.4-9.1-31.8c-6.7-9.8-15.9-14.7-27.5-14.7c-12.2,0-21.6,4.9-28.3,14.6
		C625.1,163,622.2,173.4,622.2,186z"/>
	<g>
		<path class="st0" d="M439.9,39c0.3-0.1,0.5-0.3,0.8-0.4c0.2-0.1,0.5-0.2,0.7-0.3c0.3-0.1,0.5-0.2,0.8-0.3c0.2-0.1,0.5-0.2,0.7-0.3
			c0.3-0.1,0.5-0.2,0.8-0.3c0.2-0.1,0.5-0.2,0.7-0.2c0.3-0.1,0.6-0.2,0.8-0.3c0.2-0.1,0.5-0.1,0.7-0.2c0.3-0.1,0.6-0.2,0.8-0.2
			c0.2-0.1,0.5-0.1,0.7-0.2c0.3-0.1,0.6-0.1,0.8-0.2c0.2-0.1,0.5-0.1,0.7-0.2c0.3-0.1,0.6-0.1,0.8-0.2c0.2,0,0.5-0.1,0.7-0.1
			c0.3,0,0.6-0.1,0.9-0.1c0.2,0,0.5-0.1,0.7-0.1c0.3,0,0.6-0.1,0.9-0.1c0.2,0,0.5,0,0.7-0.1c0.3,0,0.6,0,0.9,0c0.2,0,0.5,0,0.7,0
			c0.3,0,0.6,0,0.9,0c0.2,0,0.5,0,0.7,0c0.3,0,0.6,0,0.9,0c0.2,0,0.5,0,0.7,0c0.3,0,0.6,0,0.9,0.1c0.2,0,0.4,0,0.7,0.1
			c0.3,0,0.6,0.1,0.9,0.1c0.2,0,0.4,0.1,0.6,0.1c0.3,0.1,0.7,0.1,1,0.2c0.2,0,0.3,0.1,0.5,0.1c0.5,0.1,1,0.2,1.5,0.3
			c0,0,0,0,0.1-0.1c0,0,0,0,0,0c0,0,0.1-0.1,0.1-0.1c0-0.1,0.1-0.1,0.1-0.2c0,0,0-0.1,0.1-0.1c0-0.1,0-0.1,0.1-0.2c0,0,0-0.1,0-0.1
			c0-0.1,0-0.2,0-0.3c0-0.1-0.1-0.1-0.1-0.2c0,0,0,0,0,0c0,0,0,0,0-0.1c0,0-0.1-0.1-0.1-0.1c0,0,0,0-0.1-0.1c0,0-0.1-0.1-0.2-0.1
			c0,0,0,0-0.1-0.1c0,0,0,0,0,0c-0.1,0-0.1-0.1-0.2-0.1c0,0-0.1,0-0.1,0c-0.1,0-0.2-0.1-0.3-0.1c0,0-0.1,0-0.1,0
			c-0.1,0-0.2-0.1-0.3-0.1c-0.1,0-0.1,0-0.2,0c-0.1,0-0.2,0-0.3-0.1c-0.1,0-0.1,0-0.2,0c-0.1,0-0.3,0-0.4-0.1c0,0-0.1,0-0.1,0
			c0,0-0.1,0-0.1,0c-0.1,0-0.3,0-0.4,0c0,0-0.1,0-0.1,0c-0.1,0-0.1,0-0.2,0c-0.1,0-0.3,0-0.4,0c-0.1,0-0.2,0-0.3,0
			c-0.1,0-0.3,0-0.4,0c-0.1,0-0.2,0-0.3,0c0,0-0.1,0-0.1,0c-0.1,0-0.3,0-0.5,0c-0.1,0-0.1,0-0.2,0c-0.1,0-0.1,0-0.2,0
			c-0.2,0-0.5,0-0.8,0c-0.1,0-0.2,0-0.4,0c-0.2,0-0.3,0-0.5,0c-0.1,0-0.3,0-0.4,0c-0.2,0-0.3,0-0.5,0c-0.1,0-0.3,0-0.4,0
			c-0.2,0-0.4,0-0.6,0c-0.1,0-0.2,0-0.3,0c-0.1,0-0.2,0-0.2,0c-0.2,0-0.5,0-0.7,0.1c-0.1,0-0.2,0-0.2,0c-0.1,0-0.2,0-0.3,0
			c-0.2,0-0.4,0-0.7,0.1c-0.2,0-0.3,0-0.5,0.1c-0.2,0-0.4,0-0.6,0.1c-0.2,0-0.3,0-0.5,0.1c-0.2,0-0.5,0.1-0.7,0.1
			c-0.1,0-0.3,0-0.4,0.1c-0.4,0-0.7,0.1-1.1,0.1c-0.1,0-0.2,0-0.4,0.1c0,0-0.1,0-0.1,0c-0.3,0-0.5,0.1-0.8,0.1c-0.1,0-0.1,0-0.2,0
			c-0.1,0-0.3,0-0.4,0.1c-0.3,0-0.7,0.1-1,0.2l0,0c-1.1,0.2-2.2,0.4-3.4,0.6c-0.3,0-0.5,0.1-0.8,0.1c-3.2,0.6-6.6,1.3-10.1,2.1
			c-0.6,0.1-1.1-0.1-1.5-0.5L422,26.5l-11-14.4c-0.2-0.3-0.6-0.5-1-0.6l-6.4-0.5c-0.3,0-0.5,0-0.8,0.2c0,0,0,0,0,0
			c0,0-0.1,0.1-0.1,0.1c-0.1,0-0.1,0.1-0.2,0.1c-0.1,0.1-0.2,0.2-0.2,0.3c-0.3,0.4-0.3,1-0.1,1.4l13.1,28.7
			c-5.6,1.3-18.6,5.2-19.3,5.4c-0.4,0.2-0.9,0.1-1.3-0.1l-6.1-3.9c-0.3-0.2-0.6-0.3-1-0.2l-4.6,0.5c-0.4,0-0.8,0.3-1,0.6l0,0
			c0,0.1-0.1,0.1-0.1,0.2c-0.2,0.4-0.2,0.9,0,1.4l4.7,8.4c0.1,0.2,0.2,0.5,0.2,0.8l-0.3,9.6c0,0.5,0.2,0.9,0.6,1.2
			c0.4,0.3,0.9,0.3,1.4,0.2l4-1.5l0,0l0.3-0.1c0.3-0.1,0.6-0.3,0.7-0.6l3.1-5.5l0,0l0.4-0.7c0.2-0.4,0.6-0.7,1.1-0.7
			c0.4,0,0.7-0.1,1.1-0.1c0.2,0,0.4-0.1,0.6-0.1c0.1,0,0.2,0,0.3,0c0.1,0,0.2,0,0.2,0l0,0c0.5-0.1,1-0.2,1.5-0.2
			c0.1,0,0.2,0,0.3-0.1c0.2,0,0.5-0.1,0.7-0.1l0,0c3.9-0.7,8.3-1.8,13.1-2.9c0.4-0.1,0.9,0,1.2,0.2c0.3,0.3,0.6,0.7,0.6,1.1l0.4,6.6
			c0.6-1.3,1.3-2.6,2.1-3.9c3.2-5.2,7.1-9.6,11.6-13C434.5,41.9,437.1,40.3,439.9,39z"/>
		<path class="st0" d="M464.6,38.6c0,0,0.1-0.1,0.1-0.1c0-0.1,0.1-0.1,0.1-0.2c-0.5-0.1-1-0.2-1.5-0.3c-0.2,0-0.3-0.1-0.5-0.1
			c-0.3-0.1-0.7-0.1-1-0.2c-0.2,0-0.4-0.1-0.6-0.1c-0.3,0-0.6-0.1-0.9-0.1c-0.2,0-0.4,0-0.7-0.1c-0.3,0-0.6-0.1-0.9-0.1
			c-0.2,0-0.5,0-0.7,0c-0.3,0-0.6,0-0.9,0c-0.2,0-0.5,0-0.7,0c-0.3,0-0.6,0-0.9,0c-0.2,0-0.5,0-0.7,0c-0.3,0-0.6,0-0.9,0
			c-0.2,0-0.5,0-0.7,0.1c-0.3,0-0.6,0.1-0.9,0.1c-0.2,0-0.5,0.1-0.7,0.1c-0.3,0-0.6,0.1-0.9,0.1c-0.2,0-0.5,0.1-0.7,0.1
			c-0.3,0.1-0.6,0.1-0.8,0.2c-0.2,0-0.5,0.1-0.7,0.2c-0.3,0.1-0.6,0.1-0.8,0.2c-0.2,0.1-0.5,0.1-0.7,0.2c-0.3,0.1-0.6,0.1-0.8,0.2
			c-0.2,0.1-0.5,0.1-0.7,0.2c-0.3,0.1-0.6,0.2-0.8,0.3c-0.2,0.1-0.5,0.2-0.7,0.2c-0.3,0.1-0.5,0.2-0.8,0.3c-0.2,0.1-0.5,0.2-0.7,0.3
			c-0.3,0.1-0.5,0.2-0.8,0.3c-0.2,0.1-0.5,0.2-0.7,0.3c-0.3,0.1-0.5,0.2-0.8,0.4c-2.7,1.3-5.3,2.9-7.8,4.8c-2.8,2.9-5.3,6.2-7.5,9.8
			c-2.6,4.3-4.6,8.8-5.9,13.3l0.9,16.9c0,0.5,0.3,1,0.8,1.2c0.5,0.2,1,0.2,1.4-0.1l5.6-3.5l0,0l0.4-0.2l5.5-31.8
			c0.1-0.6,0.5-1,1.1-1.2c7.4-2,14-4.1,19.1-6l0,0c0,0,0,0,0,0c0.4-0.2,0.8-0.3,1.2-0.5c0.1,0,0.2-0.1,0.2-0.1
			c0.3-0.1,0.7-0.3,1-0.4c0.1,0,0.2-0.1,0.3-0.1c0.3-0.1,0.6-0.3,0.9-0.4c0.1,0,0.2-0.1,0.3-0.1c0.3-0.1,0.6-0.3,0.9-0.4
			c0,0,0.1,0,0.1-0.1c0.7-0.3,1.3-0.6,1.9-0.9c0.1,0,0.1-0.1,0.2-0.1c0.2-0.1,0.4-0.2,0.6-0.3c0.1,0,0.2-0.1,0.2-0.1
			c0.2-0.1,0.4-0.2,0.5-0.3c0.1,0,0.2-0.1,0.2-0.1c0.2-0.1,0.3-0.2,0.5-0.3c0.1,0,0.1-0.1,0.2-0.1c0.2-0.1,0.3-0.2,0.5-0.3
			c0,0,0.1,0,0.1-0.1c0.2-0.1,0.3-0.3,0.5-0.4c0,0,0.1-0.1,0.1-0.1C464.4,38.8,464.5,38.7,464.6,38.6z"/>
	</g>
</g>
</svg>
